<svg width="20" height="28" viewBox="0 0 20 28" fill="none" xmlns="http://www.w3.org/2000/svg">
<path d="M7.38355 26.9203L9.60113 27.9148C9.7273 27.9713 9.86142 28 9.99993 28C10.1384 28 10.2727 27.9713 10.3988 27.9147L14.1069 26.2519C17.6868 24.6467 19.9998 21.0917 19.9998 17.1952V9.31988C19.9998 9.05456 19.783 8.83957 19.5155 8.83957C19.2481 8.83957 19.0312 9.05456 19.0312 9.31988V17.1953C19.0312 20.7152 16.9417 23.9265 13.7079 25.3766L10.0002 27.0395L7.78261 26.0451C7.53904 25.9359 7.25201 26.0431 7.14178 26.2848C7.03156 26.5265 7.13978 26.811 7.38355 26.9203Z" fill="#505050"/>
<path d="M19.9999 3.92794C19.9999 3.72672 19.8735 3.54696 19.6832 3.47728L10.2578 0.0296207C10.1505 -0.00957256 10.0326 -0.00989277 9.92506 0.0287881L0.319122 3.48554C0.127597 3.55445 0 3.73498 0 3.93703V17.1952C0 19.031 0.51465 20.8308 1.48835 22.4C2.45928 23.9648 3.84225 25.2297 5.48777 26.0579C5.55803 26.0933 5.63287 26.11 5.70661 26.11C5.88322 26.11 6.0535 26.0138 6.13887 25.847C6.25994 25.6104 6.16469 25.3214 5.92623 25.2013C4.44 24.4532 3.1907 23.3105 2.31334 21.8966C1.43366 20.4787 0.968666 18.8531 0.968666 17.1952V4.27357L10.089 0.991648L19.0314 4.26262V7.27281C19.0314 7.53813 19.2482 7.75312 19.5157 7.75312C19.7832 7.75312 20 7.53813 20 7.27281V3.92794H19.9999Z" fill="#505050"/>
<path fill-rule="evenodd" clip-rule="evenodd" d="M6.47318 19.4724C6.55415 19.524 6.64488 19.5486 6.73451 19.5486C6.89381 19.5486 7.04988 19.4707 7.14235 19.3279L7.65597 18.5352C8.231 18.8362 8.86511 19.0396 9.53628 19.1247L9.508 19.8136C9.32158 19.874 9.1482 19.9724 8.99961 20.1081C8.72737 20.357 8.5691 20.6961 8.55406 21.063C8.52293 21.8203 9.11895 22.4616 9.88266 22.4925C9.90177 22.4933 9.92075 22.4937 9.93967 22.4937C10.6782 22.4937 11.2937 21.9133 11.324 21.175C11.3482 20.5864 10.9935 20.068 10.4758 19.8516L10.504 19.1646C11.1837 19.1336 11.8319 18.9816 12.4272 18.7292L12.8734 19.5595C12.9605 19.7216 13.128 19.814 13.3012 19.814C13.378 19.814 13.456 19.7958 13.5285 19.7575C13.7646 19.6327 13.854 19.3418 13.7281 19.1077L13.2808 18.2752C13.8356 17.916 14.3227 17.4622 14.7171 16.9358L15.3108 17.2975C15.2036 17.8441 15.4382 18.4246 15.9442 18.7328C16.1652 18.8675 16.414 18.9367 16.667 18.9367C16.7751 18.9367 16.884 18.924 16.9919 18.8985C17.352 18.8131 17.657 18.5937 17.8508 18.2808C18.2507 17.6348 18.0463 16.7866 17.395 16.3899C16.889 16.0818 16.2608 16.1368 15.8177 16.4789L15.2244 16.1176C15.5158 15.5418 15.7094 14.9094 15.7816 14.2411L16.7298 14.2602L16.7399 14.2604C17.0028 14.2604 17.2185 14.0517 17.2239 13.7898C17.2294 13.5246 17.017 13.3053 16.7496 13.2999L15.8003 13.2807C15.7554 12.6084 15.5887 11.969 15.3218 11.3833L16.1509 10.9234C16.3843 10.7939 16.4677 10.5012 16.3371 10.2697C16.2066 10.0381 15.9115 9.95558 15.678 10.0849L14.8485 10.5451C14.4754 10.0026 14.0069 9.53015 13.468 9.14943L13.8201 8.55391C13.8982 8.56749 13.9774 8.57511 14.057 8.57511C14.1743 8.57511 14.2924 8.56025 14.409 8.53009C14.7672 8.43748 15.0678 8.21199 15.255 7.89525C15.6416 7.24145 15.4198 6.39745 14.7605 6.01397C14.1012 5.63062 13.2502 5.85054 12.8636 6.5044C12.6764 6.82115 12.6246 7.19131 12.718 7.54654C12.769 7.74052 12.861 7.91638 12.985 8.0672L12.6337 8.66124C12.048 8.38433 11.4061 8.20693 10.7302 8.14885V7.20732C10.7302 6.94199 10.5133 6.72701 10.2459 6.72701C9.97842 6.72701 9.76158 6.94199 9.76158 7.20732V8.14885C9.17648 8.19912 8.61669 8.33841 8.09701 8.55487L7.86209 8.08353C7.74353 7.84568 7.45315 7.74808 7.21332 7.86579C6.97356 7.9833 6.87521 8.27136 6.99377 8.50921L7.24038 9.00399C6.73709 9.32541 6.28914 9.72439 5.9141 10.1847L5.33494 9.79894C5.46461 9.25708 5.25397 8.66752 4.76101 8.33912C4.45365 8.13444 4.08441 8.06034 3.721 8.13137C3.35771 8.20207 3.04394 8.40898 2.83744 8.71382C2.41125 9.34303 2.58076 10.1988 3.21526 10.6215C3.45198 10.7792 3.72029 10.8547 3.98607 10.8547C4.27387 10.8547 4.55825 10.7656 4.79582 10.597L5.37272 10.9813C5.05715 11.546 4.83831 12.1706 4.73893 12.8337L3.79248 12.7763C3.52669 12.7619 3.29591 12.9617 3.27957 13.2264C3.26323 13.4912 3.46645 13.719 3.73339 13.7352L4.68153 13.7927C4.69909 14.468 4.83902 15.1133 5.08085 15.7079L4.46036 16.02C4.04677 15.6432 3.42512 15.5377 2.89568 15.804C2.56545 15.9701 2.3202 16.2537 2.20513 16.6028C2.09 16.9518 2.11886 17.3244 2.2863 17.6519C2.45374 17.9794 2.7398 18.2226 3.09173 18.3367C3.23347 18.3828 3.37908 18.4055 3.52398 18.4055C3.73888 18.4055 3.9523 18.3554 4.1495 18.2562C4.47973 18.0901 4.72498 17.8065 4.84012 17.4574C4.90295 17.267 4.92135 17.0697 4.89927 16.8763L5.52008 16.5641C5.87116 17.1219 6.31975 17.6129 6.84202 18.0144L6.3275 18.8085C6.18292 19.0318 6.24814 19.329 6.47318 19.4724ZM16.6704 17.1474C16.7449 17.1474 16.8203 17.1672 16.8883 17.2085C17.0845 17.328 17.1461 17.5836 17.0256 17.7782C16.9672 17.8725 16.8753 17.9385 16.7668 17.9642C16.6584 17.9901 16.5462 17.9722 16.4513 17.9143C16.2551 17.7948 16.1935 17.5393 16.314 17.3447C16.3927 17.2176 16.53 17.1474 16.6704 17.1474ZM14.0602 6.78591C13.9167 6.78591 13.7769 6.85904 13.6993 6.99039C13.6428 7.08581 13.6273 7.19724 13.6554 7.30438C13.6835 7.4114 13.752 7.50112 13.8482 7.55709C13.9445 7.61306 14.0569 7.62856 14.1648 7.60064C14.2727 7.57278 14.3631 7.50483 14.4196 7.40941C14.5361 7.21242 14.4692 6.95824 14.2706 6.84271C14.2044 6.80416 14.1318 6.78591 14.0602 6.78591ZM3.75548 9.82407C3.56434 9.69675 3.51333 9.43892 3.6417 9.24936C3.70388 9.15752 3.79842 9.09528 3.90787 9.07395C3.93499 9.06864 3.96218 9.06607 3.98917 9.06607C4.07124 9.06607 4.15144 9.09009 4.22112 9.13652C4.41225 9.2639 4.46333 9.52166 4.33496 9.71122C4.20652 9.90066 3.94648 9.95132 3.75548 9.82407ZM3.71157 17.3994C3.81101 17.3494 3.88488 17.264 3.91956 17.1588C3.95417 17.0537 3.94552 16.9415 3.89515 16.8428C3.8216 16.699 3.67444 16.6161 3.52204 16.6161C3.45863 16.6161 3.39425 16.6304 3.33388 16.6608C3.23443 16.7107 3.16056 16.7962 3.12589 16.9014C3.09115 17.0065 3.09986 17.1187 3.1503 17.2174C3.20073 17.316 3.28687 17.3894 3.3929 17.4237C3.49893 17.4582 3.61206 17.4495 3.71157 17.3994ZM9.92211 21.5327C9.69203 21.5234 9.51252 21.3303 9.52188 21.1021C9.5264 20.9915 9.57412 20.8894 9.65613 20.8145C9.73388 20.7435 9.83358 20.7048 9.93864 20.7048C9.94445 20.7048 9.95026 20.705 9.95607 20.7052C10.1861 20.7145 10.3657 20.9077 10.3563 21.1358C10.3469 21.364 10.151 21.5418 9.92211 21.5327ZM10.2461 9.08732C7.70989 9.08732 5.64657 11.1336 5.64657 13.6489C5.64657 16.1642 7.70989 18.2105 10.2461 18.2105C12.7823 18.2105 14.8456 16.1641 14.8456 13.6489C14.8456 11.1336 12.7823 9.08732 10.2461 9.08732Z" fill="#505050"/>
<path fill-rule="evenodd" clip-rule="evenodd" d="M11.5817 12.304C11.5817 13.3828 10.6968 14.2605 9.60895 14.2605C8.52121 14.2605 7.6363 13.3828 7.63623 12.304C7.63623 11.2252 8.52121 10.3475 9.60895 10.3475C10.6967 10.3475 11.5817 11.2252 11.5817 12.304ZM10.6131 12.304C10.6131 11.7549 10.1626 11.3081 9.60895 11.3081C9.0553 11.3081 8.6049 11.7548 8.60483 12.304C8.60483 12.8531 9.0553 13.2999 9.60895 13.2999C10.1626 13.2999 10.6131 12.8531 10.6131 12.304Z" fill="#505050"/>
<path d="M9.60893 15.6553H9.2448C8.97734 15.6553 8.7605 15.8703 8.7605 16.1356C8.7605 16.4009 8.97734 16.6159 9.2448 16.6159H9.60893C9.87639 16.6159 10.0932 16.4009 10.0932 16.1356C10.0932 15.8703 9.87646 15.6553 9.60893 15.6553Z" fill="#505050"/>
<path d="M12.3859 14.714H12.6979C12.9653 14.714 13.1822 14.499 13.1822 14.2337C13.1822 13.9684 12.9653 13.7534 12.6979 13.7534H12.3859C12.1184 13.7534 11.9016 13.9684 11.9016 14.2337C11.9016 14.499 12.1184 14.714 12.3859 14.714Z" fill="#505050"/>
</svg>
