<svg width="15" height="27" viewBox="0 0 15 27" fill="none" xmlns="http://www.w3.org/2000/svg">
<path fill-rule="evenodd" clip-rule="evenodd" d="M14.2332 9.80159L13.8111 9.39372V8.2278C13.8111 7.69201 13.445 7.23717 12.9418 7.08433C12.7811 6.44266 12.1813 5.96455 11.4686 5.96455H11.3859V5.83168C11.3859 5.02954 10.9349 4.2892 10.2092 3.89967L10.1529 3.86959C9.68942 3.62075 9.40159 3.14799 9.40159 2.63589V1.83726C9.40159 0.824181 8.54857 0 7.50004 0C6.45151 0 5.59848 0.824181 5.59848 1.83726V2.63569C5.59848 3.14799 5.31066 3.62075 4.84715 3.86938L4.79066 3.89967C4.06491 4.2892 3.6142 5.02954 3.6142 5.83168V5.96455H3.53148C2.81853 5.96455 2.219 6.44266 2.05825 7.08433C1.55509 7.23697 1.18902 7.6918 1.18902 8.2278V9.39372L0.766666 9.80159C0.173963 10.3745 -0.100429 11.1935 0.0332488 11.9923C0.23835 13.2194 0.582672 15.5313 0.582672 17.2279C0.582672 18.1423 0.481401 19.726 0.28163 21.935C0.164369 23.2328 0.619343 24.5281 1.53057 25.4886C2.44159 26.4492 3.73765 27 5.08616 27H9.91371C11.2624 27 12.5585 26.4492 13.4695 25.4886C14.3805 24.5281 14.8357 23.2328 14.7184 21.935C14.5187 19.726 14.4174 18.1423 14.4174 17.2279C14.4174 15.5311 14.7615 13.2194 14.9668 11.9923C15.1003 11.1935 14.8261 10.3745 14.2332 9.80159ZM2.01582 8.2278C2.01582 8.00759 2.20109 7.82838 2.42922 7.82838C2.65735 7.82838 2.84262 7.64957 2.84262 7.42896C2.84262 7.06187 3.15155 6.76339 3.53148 6.76339H4.8544C5.08274 6.76339 5.2678 6.58459 5.2678 6.36397C5.2678 6.14335 5.08274 5.96455 4.8544 5.96455H4.441V5.83168C4.441 5.31937 4.72883 4.84682 5.19212 4.59798L5.24862 4.5677C5.97436 4.17817 6.42528 3.43803 6.42528 2.63589V1.83726C6.42528 1.2646 6.90733 0.798843 7.50004 0.798843C8.09253 0.798843 8.57479 1.2646 8.57479 1.83726V2.63569C8.57479 3.43783 9.02572 4.17817 9.75146 4.5677L9.80774 4.59798C10.2712 4.84662 10.5591 5.31937 10.5591 5.83168V5.96455H6.78346C6.55512 5.96455 6.37006 6.14335 6.37006 6.36397C6.37006 6.58438 6.55512 6.76339 6.78346 6.76339H11.4684C11.8483 6.76339 12.1575 7.06187 12.1575 7.42896C12.1575 7.64957 12.3425 7.82838 12.5709 7.82838C12.7988 7.82838 12.9843 8.00759 12.9843 8.2278V9.15971H12.3229V8.70715C12.3229 8.48653 12.1376 8.30772 11.9095 8.30772C11.6812 8.30772 11.4961 8.48653 11.4961 8.70715V9.15971H10.118V8.70715C10.118 8.48653 9.9329 8.30772 9.70456 8.30772C9.47643 8.30772 9.29115 8.48653 9.29115 8.70715V9.15971H7.91322V8.70715C7.91322 8.48653 7.72817 8.30772 7.49982 8.30772C7.27148 8.30772 7.08642 8.48653 7.08642 8.70715V9.15971H5.70849V8.70715C5.70849 8.48653 5.52343 8.30772 5.29509 8.30772C5.06675 8.30772 4.88169 8.48653 4.88169 8.70715V9.15971H3.50376V8.70715C3.50376 8.48653 3.3187 8.30772 3.09036 8.30772C2.86202 8.30772 2.67696 8.48653 2.67696 8.70715V9.15971H2.01561V8.2278H2.01582ZM9.91318 26.2012C11.0472 26.2012 12.0934 25.7564 12.8594 24.9487C13.6255 24.1412 13.9928 23.0956 13.8941 22.0044C13.6924 19.7725 13.5901 18.1653 13.5901 17.2279C13.5901 16.2111 13.7082 14.99 13.8483 13.8994H3.91686C3.68852 13.8994 3.50346 13.7206 3.50346 13.5C3.50346 13.2794 3.68852 13.1006 3.91686 13.1006H13.9572C14.0254 12.6297 14.093 12.2059 14.15 11.865C14.2414 11.3187 14.0536 10.7584 13.6481 10.3664L13.2259 9.95856H1.7731L1.35075 10.3664C0.945235 10.7584 0.757616 11.3187 0.848867 11.865C0.906006 12.2059 0.973378 12.6297 1.0416 13.1006H1.98758C2.21592 13.1006 2.40098 13.2794 2.40098 13.5C2.40098 13.7206 2.21592 13.8994 1.98758 13.8994H1.15076C1.29084 14.99 1.40895 16.2111 1.40895 17.2279C1.40895 18.1653 1.30661 19.7725 1.10471 22.0044C1.00621 23.0956 1.37356 24.1412 2.1396 24.9487C2.90542 25.7564 3.95182 26.2012 5.08563 26.2012H9.91318Z" fill="#505050"/>
<path d="M11.6339 15.2308H10.4764C10.248 15.2308 10.063 15.4096 10.063 15.6302C10.063 15.8508 10.248 16.0296 10.4764 16.0296H11.6339C11.8622 16.0296 12.0473 15.8508 12.0473 15.6302C12.0473 15.4096 11.8622 15.2308 11.6339 15.2308Z" fill="#505050"/>
<path d="M11.6339 17.3609H10.4764C10.248 17.3609 10.063 17.5397 10.063 17.7604C10.063 17.981 10.248 18.1598 10.4764 18.1598H11.6339C11.8622 18.1598 12.0473 17.981 12.0473 17.7604C12.0473 17.5397 11.8622 17.3609 11.6339 17.3609Z" fill="#505050"/>
<path d="M11.6339 19.4911H10.4764C10.248 19.4911 10.063 19.6699 10.063 19.8905C10.063 20.1112 10.248 20.29 10.4764 20.29H11.6339C11.8622 20.29 12.0473 20.1112 12.0473 19.8905C12.0473 19.6699 11.8622 19.4911 11.6339 19.4911Z" fill="#505050"/>
<path d="M11.6339 21.6213H10.4764C10.248 21.6213 10.063 21.8001 10.063 22.0207C10.063 22.2413 10.248 22.4202 10.4764 22.4202H11.6339C11.8622 22.4202 12.0473 22.2413 12.0473 22.0207C12.0473 21.8001 11.8622 21.6213 11.6339 21.6213Z" fill="#505050"/>
<path d="M11.6339 23.7515H10.4764C10.248 23.7515 10.063 23.9303 10.063 24.1509C10.063 24.3715 10.248 24.5503 10.4764 24.5503H11.6339C11.8622 24.5503 12.0473 24.3715 12.0473 24.1509C12.0473 23.9303 11.8622 23.7515 11.6339 23.7515Z" fill="#505050"/>
</svg>
